<?xml version="1.0" encoding="UTF-8"?>
<svg id="Layer_1" xmlns="http://www.w3.org/2000/svg" version="1.1" xmlns:xlink="http://www.w3.org/1999/xlink" viewBox="0 0 512 512">
  <!-- Generator: Adobe Illustrator 29.8.1, SVG Export Plug-In . SVG Version: 2.1.1 Build 2)  -->
  <defs>
    <linearGradient id="linear-gradient" x1="124.08" y1="409.96" x2="450.03" y2="409.96" gradientUnits="userSpaceOnUse">
      <stop offset="0" stop-color="#7654a3"/>
      <stop offset="1" stop-color="#6d63ac"/>
    </linearGradient>
    <linearGradient id="linear-gradient1" x1="90.89" y1="417.13" x2="365.73" y2="149.13" gradientUnits="userSpaceOnUse">
      <stop offset="0" stop-color="#8159a5"/>
      <stop offset="1" stop-color="#5b5faa"/>
    </linearGradient>
    <linearGradient id="linear-gradient2" x1="73.12" y1="102.89" x2="445.85" y2="102.89" gradientUnits="userSpaceOnUse">
      <stop offset="0" stop-color="#5157a6"/>
      <stop offset="1" stop-color="#3f3f99"/>
    </linearGradient>
    <linearGradient id="linear-gradient3" x1="397.79" y1="45.83" x2="398.31" y2="145.73" gradientUnits="userSpaceOnUse">
      <stop offset="0" stop-color="#4a4da0"/>
      <stop offset="1" stop-color="#5256a5"/>
    </linearGradient>
    <linearGradient id="linear-gradient4" x1="227.78" y1="178.73" x2="445.85" y2="178.73" gradientUnits="userSpaceOnUse">
      <stop offset="0" stop-color="#4c4a9f"/>
      <stop offset="1" stop-color="#474fa2"/>
    </linearGradient>
  </defs>
  <text/>
  <g>
    <polygon points="450.03 347.58 449.5 472.33 124.08 472.33 253.46 347.76 450.03 347.58" fill="url(#linear-gradient)"/>
    <polygon points="61.97 350.77 259.45 161.25 445.85 165.57 124.08 472.33 61.97 350.77" fill="url(#linear-gradient1)"/>
    <path d="M73.12,40.22h262.24v92.74c0,8.34,6.74,15.12,15.08,15.17l95.4.52v16.92l-372.73-.6V40.22Z" fill="url(#linear-gradient2)"/>
    <path d="M350.23,39.69l95.55,95.02h-84.61c-5.19,0-9.42-4.15-9.5-9.34-.4-24.2-1.44-86.97-1.44-85.69Z" fill="url(#linear-gradient3)"/>
    <polygon points="445.85 165.57 227.78 191.93 254.78 165.52 445.85 165.57" fill="url(#linear-gradient4)" opacity=".9"/>
    <polygon points="254.73 347.79 279.75 347.73 150.46 472.33 124.08 472.33 254.73 347.79" fill="#60469c" opacity=".9"/>
  </g>
</svg>